<svg class="main-svg" xmlns="http://www.w3.org/2000/svg" xmlns:xlink="http://www.w3.org/1999/xlink" width="700" height="500" style="" viewBox="0 0 700 500"><rect x="0" y="0" width="700" height="500" style="fill: rgb(255, 255, 255); fill-opacity: 1;"/><defs id="defs-74334b"><g class="clips"><clipPath id="clip74334bxyplot" class="plotclip"><rect width="509" height="208"/></clipPath><clipPath id="clip74334bxy2plot" class="plotclip"><rect width="509" height="80"/></clipPath><clipPath class="axesclip" id="clip74334bx"><rect x="80" y="0" width="509" height="500"/></clipPath><clipPath class="axesclip" id="clip74334by"><rect x="0" y="100" width="700" height="208"/></clipPath><clipPath class="axesclip" id="clip74334bxy"><rect x="80" y="100" width="509" height="208"/></clipPath><clipPath class="axesclip" id="clip74334by2"><rect x="0" y="340" width="700" height="80"/></clipPath><clipPath class="axesclip" id="clip74334bxy2"><rect x="80" y="340" width="509" height="80"/></clipPath></g><g class="gradients"/></defs><g class="bglayer"><rect class="bg" x="80" y="100" width="509" height="208" style="fill: rgb(229, 236, 246); fill-opacity: 1; stroke-width: 0;"/><rect class="bg" x="80" y="340" width="509" height="80" style="fill: rgb(229, 236, 246); fill-opacity: 1; stroke-width: 0;"/></g><g class="layer-below"><g class="imagelayer"/><g class="shapelayer"/></g><g class="cartesianlayer"><g class="subplot xy"><g class="layer-subplot"><g class="shapelayer"/><g class="imagelayer"/></g><g class="gridlayer"><g class="x"><path class="xgrid crisp" transform="translate(159.26999999999998,0)" d="M0,100v208" style="stroke: rgb(255, 255, 255); stroke-opacity: 1; stroke-width: 1px;"/><path class="xgrid crisp" transform="translate(259.4,0)" d="M0,100v208" style="stroke: rgb(255, 255, 255); stroke-opacity: 1; stroke-width: 1px;"/><path class="xgrid crisp" transform="translate(359.53,0)" d="M0,100v208" style="stroke: rgb(255, 255, 255); stroke-opacity: 1; stroke-width: 1px;"/><path class="xgrid crisp" transform="translate(459.67,0)" d="M0,100v208" style="stroke: rgb(255, 255, 255); stroke-opacity: 1; stroke-width: 1px;"/><path class="xgrid crisp" transform="translate(559.8,0)" d="M0,100v208" style="stroke: rgb(255, 255, 255); stroke-opacity: 1; stroke-width: 1px;"/></g><g class="y"><path class="ygrid crisp" transform="translate(0,271.35)" d="M80,0h509" style="stroke: rgb(255, 255, 255); stroke-opacity: 1; stroke-width: 1px;"/><path class="ygrid crisp" transform="translate(0,228.19)" d="M80,0h509" style="stroke: rgb(255, 255, 255); stroke-opacity: 1; stroke-width: 1px;"/><path class="ygrid crisp" transform="translate(0,185.03)" d="M80,0h509" style="stroke: rgb(255, 255, 255); stroke-opacity: 1; stroke-width: 1px;"/><path class="ygrid crisp" transform="translate(0,141.87)" d="M80,0h509" style="stroke: rgb(255, 255, 255); stroke-opacity: 1; stroke-width: 1px;"/></g></g><g class="zerolinelayer"/><path class="xlines-below"/><path class="ylines-below"/><g class="overlines-below"/><g class="xaxislayer-below"/><g class="yaxislayer-below"/><g class="overaxes-below"/><g class="plot" transform="translate(80, 100)" clip-path="url('#clip74334bxyplot')"><g class="scatterlayer mlayer"><g class="trace scatter trace8c63fd" style="stroke-miterlimit: 2; opacity: 1;"><g class="fills"/><g class="errorbars"/><g class="lines"><path class="js-line" d="M29.2,197.6L49.93,184.82L50.83,184.22L73.36,168.59L74.26,167.93L99.49,148.54L100.39,147.81L126.53,126.18L127.43,125.42L196.82,66.95L197.72,66.24L222.06,48.19L222.96,47.56L243.69,34.39L244.59,33.87L261.71,24.96L262.61,24.55L277.93,18.33L278.83,18.02L293.25,13.84L294.15,13.64L306.77,11.4L307.67,11.29L320.29,10.42L321.19,10.41L333.81,10.92L334.71,11.01L348.22,13.09L349.13,13.28L362.64,16.89L363.55,17.18L377.06,22.24L377.96,22.63L393.28,30L394.19,30.48L410.41,39.96L411.31,40.53L429.33,52.77L430.23,53.43L449.16,67.81L450.06,68.52L478.9,92.38" style="vector-effect: non-scaling-stroke; fill: none; stroke: rgb(31, 119, 180); stroke-opacity: 1; stroke-width: 2px; opacity: 1;"/></g><g class="points"/><g class="text"/></g></g></g><g class="overplot"/><path class="xlines-above crisp" d="M0,0" style="fill: none;"/><path class="ylines-above crisp" d="M80.5,100v208" style="fill: none; stroke-width: 1px; stroke: rgb(255, 255, 255); stroke-opacity: 1;"/><g class="overlines-above"/><g class="xaxislayer-above"/><g class="yaxislayer-above"><g class="ytick"><text text-anchor="end" x="77.6" y="4.199999999999999" transform="translate(0,271.35)" style="font-family: 'Open Sans', verdana, arial, sans-serif; font-size: 12px; fill: rgb(42, 63, 95); fill-opacity: 1; white-space: pre;">0.4</text></g><g class="ytick"><text text-anchor="end" x="77.6" y="4.199999999999999" transform="translate(0,228.19)" style="font-family: 'Open Sans', verdana, arial, sans-serif; font-size: 12px; fill: rgb(42, 63, 95); fill-opacity: 1; white-space: pre;">0.6</text></g><g class="ytick"><text text-anchor="end" x="77.6" y="4.199999999999999" transform="translate(0,185.03)" style="font-family: 'Open Sans', verdana, arial, sans-serif; font-size: 12px; fill: rgb(42, 63, 95); fill-opacity: 1; white-space: pre;">0.8</text></g><g class="ytick"><text text-anchor="end" x="77.6" y="4.199999999999999" transform="translate(0,141.87)" style="font-family: 'Open Sans', verdana, arial, sans-serif; font-size: 12px; fill: rgb(42, 63, 95); fill-opacity: 1; white-space: pre;">1</text></g></g><g class="overaxes-above"/></g><g class="subplot xy2"><g class="layer-subplot"><g class="shapelayer"/><g class="imagelayer"/></g><g class="gridlayer"><g class="x"><path class="xgrid crisp" transform="translate(159.26999999999998,0)" d="M0,340v80" style="stroke: rgb(255, 255, 255); stroke-opacity: 1; stroke-width: 1px;"/><path class="xgrid crisp" transform="translate(259.4,0)" d="M0,340v80" style="stroke: rgb(255, 255, 255); stroke-opacity: 1; stroke-width: 1px;"/><path class="xgrid crisp" transform="translate(359.53,0)" d="M0,340v80" style="stroke: rgb(255, 255, 255); stroke-opacity: 1; stroke-width: 1px;"/><path class="xgrid crisp" transform="translate(459.67,0)" d="M0,340v80" style="stroke: rgb(255, 255, 255); stroke-opacity: 1; stroke-width: 1px;"/><path class="xgrid crisp" transform="translate(559.8,0)" d="M0,340v80" style="stroke: rgb(255, 255, 255); stroke-opacity: 1; stroke-width: 1px;"/></g><g class="y2"><path class="y2grid crisp" transform="translate(0,380)" d="M80,0h509" style="stroke: rgb(255, 255, 255); stroke-opacity: 1; stroke-width: 1px;"/></g></g><g class="zerolinelayer"/><path class="xlines-below"/><path class="ylines-below"/><g class="overlines-below"/><g class="xaxislayer-below"/><g class="yaxislayer-below"/><g class="overaxes-below"/><g class="plot" transform="translate(80, 340)" clip-path="url('#clip74334bxy2plot')"><g class="scatterlayer mlayer"><g class="trace scatter traced21771" style="stroke-miterlimit: 2; opacity: 1;"><g class="fills"/><g class="errorbars"/><g class="lines"/><g class="points"><path class="point" transform="translate(479.8,40)" d="M0,4.2V-4.2" style="opacity: 1; stroke: rgb(31, 119, 180); stroke-opacity: 1; stroke-width: 1px; fill: none;"/><path class="point" transform="translate(429.73,40)" d="M0,4.2V-4.2" style="opacity: 1; stroke: rgb(31, 119, 180); stroke-opacity: 1; stroke-width: 1px; fill: none;"/><path class="point" transform="translate(379.67,40)" d="M0,4.2V-4.2" style="opacity: 1; stroke: rgb(31, 119, 180); stroke-opacity: 1; stroke-width: 1px; fill: none;"/><path class="point" transform="translate(379.67,40)" d="M0,4.2V-4.2" style="opacity: 1; stroke: rgb(31, 119, 180); stroke-opacity: 1; stroke-width: 1px; fill: none;"/><path class="point" transform="translate(29.2,40)" d="M0,4.2V-4.2" style="opacity: 1; stroke: rgb(31, 119, 180); stroke-opacity: 1; stroke-width: 1px; fill: none;"/><path class="point" transform="translate(79.27,40)" d="M0,4.2V-4.2" style="opacity: 1; stroke: rgb(31, 119, 180); stroke-opacity: 1; stroke-width: 1px; fill: none;"/><path class="point" transform="translate(479.8,40)" d="M0,4.2V-4.2" style="opacity: 1; stroke: rgb(31, 119, 180); stroke-opacity: 1; stroke-width: 1px; fill: none;"/></g><g class="text"/></g></g></g><g class="overplot"/><path class="xlines-above crisp" d="M79,420.5H589" style="fill: none; stroke-width: 1px; stroke: rgb(255, 255, 255); stroke-opacity: 1;"/><path class="ylines-above crisp" d="M79.5,340V420" style="fill: none; stroke-width: 1px; stroke: rgb(255, 255, 255); stroke-opacity: 1;"/><g class="overlines-above"/><g class="xaxislayer-above"><g class="xtick"><text text-anchor="middle" x="0" y="435.4" transform="translate(159.26999999999998,0)" style="font-family: 'Open Sans', verdana, arial, sans-serif; font-size: 12px; fill: rgb(42, 63, 95); fill-opacity: 1; white-space: pre;">0.2</text></g><g class="xtick"><text text-anchor="middle" x="0" y="435.4" transform="translate(259.4,0)" style="font-family: 'Open Sans', verdana, arial, sans-serif; font-size: 12px; fill: rgb(42, 63, 95); fill-opacity: 1; white-space: pre;">0.4</text></g><g class="xtick"><text text-anchor="middle" x="0" y="435.4" transform="translate(359.53,0)" style="font-family: 'Open Sans', verdana, arial, sans-serif; font-size: 12px; fill: rgb(42, 63, 95); fill-opacity: 1; white-space: pre;">0.6</text></g><g class="xtick"><text text-anchor="middle" x="0" y="435.4" transform="translate(459.67,0)" style="font-family: 'Open Sans', verdana, arial, sans-serif; font-size: 12px; fill: rgb(42, 63, 95); fill-opacity: 1; white-space: pre;">0.8</text></g><g class="xtick"><text text-anchor="middle" x="0" y="435.4" transform="translate(559.8,0)" style="font-family: 'Open Sans', verdana, arial, sans-serif; font-size: 12px; fill: rgb(42, 63, 95); fill-opacity: 1; white-space: pre;">1</text></g></g><g class="yaxislayer-above"/><g class="overaxes-above"/></g></g><g class="polarlayer"/><g class="ternarylayer"/><g class="geolayer"/><g class="funnelarealayer"/><g class="pielayer"/><g class="treemaplayer"/><g class="sunburstlayer"/><g class="glimages"/><defs id="topdefs-74334b"><g class="clips"/><clipPath id="legend74334b"><rect width="89" height="29" x="0" y="0"/></clipPath></defs><g class="layer-above"><g class="imagelayer"/><g class="shapelayer"/></g><g class="infolayer"><g class="legend" pointer-events="all" transform="translate(599.1800000000001, 100)"><rect class="bg" shape-rendering="crispEdges" width="89" height="29" x="0" y="0" style="stroke: rgb(68, 68, 68); stroke-opacity: 1; fill: rgb(255, 255, 255); fill-opacity: 1; stroke-width: 0px;"/><g class="scrollbox" transform="translate(0, 0)" clip-path="url('#legend74334b')"><g class="groups"><g class="traces" transform="translate(0, 14.5)" style="opacity: 1;"><text class="legendtext user-select-none" text-anchor="start" x="40" y="4.680000000000001" style="font-family: 'Open Sans', verdana, arial, sans-serif; font-size: 12px; fill: rgb(42, 63, 95); fill-opacity: 1; white-space: pre;">duration</text><g class="layers" style="opacity: 1;"><g class="legendfill"/><g class="legendlines"><path class="js-line" d="M5,0h30" style="fill: none; stroke: rgb(31, 119, 180); stroke-opacity: 1; stroke-width: 2px;"/></g><g class="legendsymbols"><g class="legendpoints"/></g></g><rect class="legendtoggle" pointer-events="all" x="0" y="-9.5" width="83.375" height="19" style="cursor: pointer; fill: rgb(0, 0, 0); fill-opacity: 0;"/></g></g></g><rect class="scrollbar" rx="20" ry="3" width="0" height="0" x="0" y="0" style="fill: rgb(128, 139, 164); fill-opacity: 1;"/></g><g class="g-gtitle"/><g class="g-xtitle"/><g class="g-ytitle"/><g class="g-y2title"/></g></svg>